<svg width="33" height="34" viewBox="0 0 33 34" fill="none" xmlns="http://www.w3.org/2000/svg">
  <path d="M27.8438 6.91667H5.15625C4.88275 6.91667 4.62044 7.02291 4.42705 7.21201C4.23365 7.40111 4.125 7.65758 4.125 7.92501C4.125 8.19243 4.23365 8.44891 4.42705 8.638C4.62044 8.8271 4.88275 8.93334 5.15625 8.93334H6.1875V27.0833C6.1875 27.6182 6.4048 28.1311 6.79159 28.5093C7.17839 28.8875 7.70299 29.1 8.25 29.1H24.75C25.297 29.1 25.8216 28.8875 26.2084 28.5093C26.5952 28.1311 26.8125 27.6182 26.8125 27.0833V8.93334H27.8438C28.1173 8.93334 28.3796 8.8271 28.573 8.638C28.7664 8.44891 28.875 8.19243 28.875 7.92501C28.875 7.65758 28.7664 7.40111 28.573 7.21201C28.3796 7.02291 28.1173 6.91667 27.8438 6.91667ZM24.75 27.0833H8.25V8.93334H24.75V27.0833ZM10.3125 3.89167C10.3125 3.62425 10.4211 3.36777 10.6145 3.17867C10.8079 2.98957 11.0702 2.88334 11.3438 2.88334H21.6562C21.9298 2.88334 22.1921 2.98957 22.3855 3.17867C22.5789 3.36777 22.6875 3.62425 22.6875 3.89167C22.6875 4.1591 22.5789 4.41557 22.3855 4.60467C22.1921 4.79377 21.9298 4.90001 21.6562 4.90001H11.3438C11.0702 4.90001 10.8079 4.79377 10.6145 4.60467C10.4211 4.41557 10.3125 4.1591 10.3125 3.89167Z" fill="#EB5757"/>
</svg>